<?xml version="1.0" encoding="UTF-8" standalone="no"?>
<svg xmlns="http://www.w3.org/2000/svg" xmlns:xlink="http://www.w3.org/1999/xlink" version="1.1" width="693.51082" height="473.27916" viewBox="611.36567 89.20029 693.51082 473.27916"><g fill="#000000" fill-rule="nonzero" stroke="#000000" stroke-width="1" stroke-linecap="round" stroke-linejoin="round" stroke-miterlimit="10" font-family="none" font-weight="none" font-size="none"><path d="M615.30934,116.13368c1.44965,-4.99474 3.96853,-9.85323 6.98099,-13.52311c2.9032,-3.53677 6.97177,-6.84111 10.86647,-8.819c3.61195,-1.83429 11.28194,-2.82499 11.28194,-2.82499l623.75072,-1.26629c0,0 13.77696,1.6714 20.04678,6.29255c6.298,4.64192 10.7767,8.24778 13.75423,13.74339c3.01459,5.564 2.31594,19.14705 2.31594,19.14705l-28.81846,193.18075c0,0 -23.7036,177.17917 -28.35208,198.57859c-2.08284,9.58843 -2.33848,11.89149 -4.913,17.1955c-2.59584,5.34794 -5.91742,10.90036 -10.64483,14.739c-5.12851,4.16433 -12.93295,7.23792 -19.54865,8.69977c-6.22411,1.37533 -18.93651,0.30739 -18.93651,0.30739c0,0 -459.23403,-68.5262 -513.95506,-75.02086c-10.10462,-1.19928 -22.63931,-2.30625 -28.93132,-3.58713c-7.26003,-1.47795 -16.65898,-2.5954 -22.92733,-7.3695c-6.80574,-5.18338 -10.56354,-11.48463 -10.56354,-11.48463c0,0 -3.84849,-5.75682 -4.31767,-14.50726c-1.07893,-20.12243 -0.20777,-117.99703 -0.06302,-173.05425c0.13214,-50.2608 0.22343,-127.03969 1.25813,-144.66074c0.47136,-8.02737 0.26555,-10.76782 1.71627,-15.76623z" id="Path-1"/></g></svg>